<?xml version="1.0" encoding="UTF-8" standalone="no"?>
<!-- Uploaded to: SVG Repo, www.svgrepo.com, Generator: SVG Repo Mixer Tools -->

<svg
   height="800px"
   width="800px"
   version="1.1"
   id="_x32_"
   viewBox="0 0 512 512"
   xml:space="preserve"
   sodipodi:docname="forest.svg"
   inkscape:version="1.1.2 (0a00cf5339, 2022-02-04)"
   xmlns:inkscape="http://www.inkscape.org/namespaces/inkscape"
   xmlns:sodipodi="http://sodipodi.sourceforge.net/DTD/sodipodi-0.dtd"
   xmlns="http://www.w3.org/2000/svg"
   xmlns:svg="http://www.w3.org/2000/svg"><defs
   id="defs15" /><sodipodi:namedview
   id="namedview13"
   pagecolor="#ffffff"
   bordercolor="#666666"
   borderopacity="1.0"
   inkscape:pageshadow="2"
   inkscape:pageopacity="0.0"
   inkscape:pagecheckerboard="0"
   showgrid="false"
   inkscape:zoom="1.055"
   inkscape:cx="400"
   inkscape:cy="400.47393"
   inkscape:window-width="1920"
   inkscape:window-height="1016"
   inkscape:window-x="0"
   inkscape:window-y="27"
   inkscape:window-maximized="1"
   inkscape:current-layer="_x32_" />
<style
   type="text/css"
   id="style2">
	.st0{fill:#000000;}
</style>
<g
   id="g10">
	<path
   class="st0"
   d="M346.483,226.653c-58.176-75.765-90.498-181.813-90.498-181.813s-32.318,106.048-90.505,181.813   c0,0,26.66,16.09,41.21,7.569c0,0-14.55,65.341-79.995,151.514c58.176,18.923,101.81-12.328,101.81-12.328v93.75h21.025h12.916   h21.021v-93.75c0,0,43.642,31.25,101.817,12.328c-65.457-86.174-79.995-151.514-79.995-151.514   C319.826,242.743,346.483,226.653,346.483,226.653z"
   id="path4" />
	<path
   class="st0"
   d="M160.886,307.087c-19.185-35.761-24.363-59.015-24.363-59.015c8.768,5.141,23.33-1.454,29.058-4.376   c1.522-0.84,2.417-1.379,2.417-1.379c-5.313-6.985-10.353-14.276-15.186-21.718c-34.855-54.482-53.972-117.26-53.972-117.26   s-24.711,81.041-69.23,138.977c0,0,20.361,12.283,31.542,5.756c0,0-11.181,49.956-61.151,115.88   c44.451,14.426,77.788-9.443,77.788-9.443v71.674h42.034v-71.674c0,0,3.035,2.151,8.415,4.759   C141.633,340.391,152.332,322.817,160.886,307.087z"
   id="path6" />
	<path
   class="st0"
   d="M450.849,248.071c11.121,6.527,31.474-5.756,31.474-5.756c-44.454-57.936-69.155-138.977-69.155-138.977   s-19.125,62.778-54.05,117.26c-4.766,7.441-9.803,14.733-15.123,21.718c0,0,0.906,0.54,2.428,1.379   c5.725,2.922,20.29,9.517,29.058,4.376c0,0-5.178,23.328-24.442,59.09c8.566,15.655,19.331,33.303,32.723,52.106   c5.381-2.608,8.423-4.759,8.423-4.759v71.674h41.967v-71.674c0,0,33.394,23.869,77.848,9.443   C461.97,298.027,450.849,248.071,450.849,248.071z"
   id="path8" />
</g>
<path
   style="fill:#000080;stroke:#d40000;stroke-width:0.947867"
   d="m 122.27488,609.57385 v -56.30293 l -10.69167,5.54846 C 81.181862,574.59624 47.637059,579.1277 14.459526,571.93951 -0.69729145,568.65566 -0.08710348,569.49557 6.4438519,560.9061 27.336901,533.42773 55.346116,487.32003 69.929711,456.3981 82.571589,429.59325 98.2951,387.04958 95.49763,387.21807 c -0.130331,0.008 -1.943128,0.62893 -4.028436,1.38019 -8.288723,2.98612 -21.543436,0.75674 -36.123821,-6.07586 -5.771949,-2.70484 -7.887123,-4.14286 -7.364531,-5.0069 0.40324,-0.6667 2.990379,-4.27529 5.749199,-8.0191 33.438431,-45.377 70.494949,-119.33335 95.138889,-189.87555 4.7724,-13.66076 5.57727,-15.33995 6.36068,-13.27014 0.4933,1.30332 2.91689,8.12796 5.38575,15.16588 25.54037,72.80708 63.96434,148.31038 98.55509,193.66118 l 2.67687,3.50956 -6.99001,3.2193 c -17.98257,8.28199 -29.66862,9.95077 -40.06257,5.72099 -1.6355,-0.66555 -1.73282,-0.40909 -1.10818,2.92047 2.27396,12.12127 14.58104,43.60018 27.31933,69.87703 l 9.53392,19.66681 -2.67168,4.97774 c -9.32319,17.37049 -43.65245,71.5406 -47.20697,74.4906 -0.92881,0.77083 -2.76511,0.10929 -7.34782,-2.64709 l -6.10955,-3.67476 -0.24443,56.31918 -0.24442,56.31918 h -32.22003 -32.22003 z"
   id="path906"
   transform="scale(0.64)" /><path
   style="fill:#800080;stroke:#d40000;stroke-width:0.947867"
   d="m 613.04063,609.5576 -0.24442,-56.31918 -6.10955,3.67476 c -4.7974,2.88552 -6.39293,3.43956 -7.42902,2.57968 -3.57956,-2.97077 -36.7917,-55.2018 -46.68174,-73.41396 l -3.18454,-5.86423 9.13031,-18.78032 c 13.07711,-26.8986 25.51589,-58.60434 27.78759,-70.82896 0.62939,-3.38691 0.53395,-3.64432 -1.104,-2.97777 -10.39062,4.22842 -22.08088,2.56055 -40.04629,-5.71348 l -6.97374,-3.21178 3.42259,-4.51705 c 1.88243,-2.48439 8.2862,-11.76825 14.23062,-20.63081 30.17774,-44.99214 59.60357,-105.34492 82.49301,-169.19431 3.45749,-9.64455 6.52127,-18.17536 6.80842,-18.95735 0.28714,-0.78199 2.98198,5.61612 5.98853,14.21801 12.37259,35.39868 26.50033,68.66979 44.27369,104.26541 17.38844,34.82471 34.23503,63.06611 53.02418,88.88903 l 4.32979,5.95064 -8.09957,3.79559 c -14.56705,6.82635 -28.80761,9.22285 -36.27188,6.10407 -1.87158,-0.78199 -3.56403,-1.4218 -3.76103,-1.4218 -0.96186,0 -0.0262,3.94814 3.54756,14.96927 15.52858,47.88882 47.39673,107.59764 82.95694,155.42984 9.19745,12.37153 9.72477,11.01905 -5.59006,14.33714 -34.84905,7.55034 -72.93094,1.63705 -102.8366,-15.96829 l -4.9763,-2.92953 v 56.41728 56.41728 h -32.22003 -32.22003 z"
   id="path945"
   transform="scale(0.64)" /></svg>
