<?xml version="1.0" encoding="UTF-8" standalone="no"?>
<!-- Uploaded to: SVG Repo, www.svgrepo.com, Generator: SVG Repo Mixer Tools -->

<svg
   width="800px"
   height="800px"
   viewBox="0 0 48 48"
   version="1.1"
   id="svg23"
   sodipodi:docname="chart-scatterplot-solid-svgrepo-com.svg"
   inkscape:version="1.1.2 (0a00cf5339, 2022-02-04)"
   xmlns:inkscape="http://www.inkscape.org/namespaces/inkscape"
   xmlns:sodipodi="http://sodipodi.sourceforge.net/DTD/sodipodi-0.dtd"
   xmlns="http://www.w3.org/2000/svg"
   xmlns:svg="http://www.w3.org/2000/svg">
  <defs
     id="defs27" />
  <sodipodi:namedview
     id="namedview25"
     pagecolor="#ffffff"
     bordercolor="#666666"
     borderopacity="1.0"
     inkscape:pageshadow="2"
     inkscape:pageopacity="0.0"
     inkscape:pagecheckerboard="0"
     showgrid="false"
     inkscape:zoom="0.74599765"
     inkscape:cx="663.54096"
     inkscape:cy="199.73253"
     inkscape:window-width="2560"
     inkscape:window-height="1403"
     inkscape:window-x="1920"
     inkscape:window-y="0"
     inkscape:window-maximized="0"
     inkscape:current-layer="svg23" />
  <title
     id="title2">chart-data-sets-solid</title>
  <g
     id="Layer_2"
     data-name="Layer 2">
    <g
       id="invisible_box"
       data-name="invisible box">
      <rect
         width="48"
         height="48"
         fill="none"
         id="rect4" />
    </g>
    <g
       id="icons_Q2"
       data-name="icons Q2">
      <circle
         cx="14"
         cy="12"
         r="2"
         id="circle7" />
      <circle
         cx="14"
         cy="22"
         r="2"
         id="circle9" />
      <circle
         cx="19"
         cy="17"
         r="2"
         id="circle11" />
      <circle
         cx="36"
         cy="34"
         r="2"
         id="circle13" />
      <circle
         cx="36"
         cy="24"
         r="2"
         id="circle15" />
      <circle
         cx="31"
         cy="29"
         r="2"
         id="circle17" />
      <path
         d="M41.7,20A2,2,0,0,0,44,18V6a2,2,0,0,0-2-2H30a2,2,0,0,0-2,2.3A2.1,2.1,0,0,0,30.1,8h7.1L8,37.2V6A2,2,0,0,0,4,6V44H42a2,2,0,0,0,0-4H10.8L40,10.8v7.1A2.1,2.1,0,0,0,41.7,20Z"
         id="path19" />
    </g>
  </g>
  <path
     style="fill:#d40000;stroke:#d40000;stroke-width:0.947867"
     d="m 507.58294,514.78784 c -9.40118,-2.9732 -16.28979,-9.06928 -20.56007,-18.19464 -6.85404,-14.64675 -1.35525,-32.60122 12.53605,-40.93229 6.90263,-4.13973 11.44051,-5.24602 19.39843,-4.72913 15.2322,0.98938 27.05969,11.77478 29.90985,27.27457 4.18189,22.74199 -19.28767,43.5381 -41.28426,36.58149 z"
     id="path918"
     transform="scale(0.06)" />
  <path
     style="fill:#ff6600;stroke:#d40000;stroke-width:0.947867"
     d="m 591.20688,598.18038 c -10.65164,-2.86476 -20.15162,-12.82586 -23.02233,-24.13981 -3.65338,-14.39858 4.06611,-30.2446 18.07137,-37.09563 4.00502,-1.95915 6.13455,-2.32064 13.74408,-2.33307 7.65382,-0.0125 9.71575,0.33375 13.74408,2.30805 13.99791,6.86043 21.72306,22.72875 18.07137,37.12065 -4.62841,18.24134 -22.66794,28.96496 -40.60857,24.13981 z"
     id="path994"
     transform="scale(0.06)" />
  <path
     style="fill:#ff6600;stroke:#d40000;stroke-width:0.947867"
     d="m 588.36986,430.45559 c -10.89633,-4.57676 -17.42547,-12.18345 -20.23711,-23.577 -1.30891,-5.30408 -1.39123,-7.29393 -0.4878,-11.79241 2.29822,-11.4437 8.19051,-19.40351 17.90304,-24.18498 19.32762,-9.51495 41.06063,0.91078 46.31926,22.22021 1.80762,7.32498 0.985,13.93192 -2.67636,21.49527 -7.04978,14.5629 -26.18366,21.98701 -40.82103,15.83891 z"
     id="path1070"
     transform="scale(0.06)" />
  <path
     style="fill:#000080;stroke:#d40000;stroke-width:0.947867"
     d="m 226.06635,398.67876 c -9.11483,-2.45256 -17.77479,-9.34901 -22.12231,-17.61733 -2.21691,-4.21621 -2.503,-5.83763 -2.51204,-14.23679 -0.009,-7.93471 0.33793,-10.18512 2.12702,-13.8157 3.28533,-6.66689 8.0334,-11.59213 14.61538,-15.16075 5.63257,-3.05387 6.54232,-3.25103 15.00096,-3.25103 7.9208,0 9.64842,0.3161 14.35213,2.62603 6.52996,3.20677 12.47378,9.46596 15.80087,16.63923 3.55732,7.66962 3.55353,18.26288 -0.009,25.94469 -5.18416,11.17771 -16.24887,18.77758 -28.15878,19.34107 -3.43769,0.16264 -7.52997,-0.0486 -9.09395,-0.46942 z"
     id="path1109"
     transform="scale(0.06)" />
  <path
     style="fill:#000080;stroke:#d40000;stroke-width:0.947867"
     d="m 307.58294,314.78784 c -9.40118,-2.9732 -16.28979,-9.06928 -20.56007,-18.19464 -6.85404,-14.64675 -1.35525,-32.60122 12.53605,-40.93229 6.90263,-4.13973 11.44051,-5.24602 19.39843,-4.72913 15.2322,0.98938 27.05969,11.77478 29.90985,27.27457 4.18189,22.74199 -19.28767,43.5381 -41.28426,36.58149 z"
     id="path1185"
     transform="scale(0.06)" />
  <path
     style="fill:#800080;stroke:#d40000;stroke-width:0.947867"
     d="m 224.17062,231.43161 c -8.99099,-2.97648 -15.75287,-8.67413 -20.10899,-16.94407 -2.3761,-4.51096 -2.63837,-5.9511 -2.63837,-14.48754 0,-8.53636 0.26228,-9.97661 2.63828,-14.48735 3.51955,-6.68174 9.18038,-12.17199 15.70342,-15.23022 4.5478,-2.13217 6.63743,-2.50992 13.88433,-2.50992 7.90403,0 8.96734,0.23672 14.47236,3.2219 7.12544,3.86387 11.89451,8.90379 15.23064,16.09563 3.51728,7.58233 3.51728,18.23759 0,25.81992 -3.34729,7.21589 -8.12825,12.25502 -15.20661,16.02774 -4.91432,2.61931 -7.12679,3.20445 -13.05056,3.45155 -4.1981,0.17511 -8.69306,-0.21891 -10.9245,-0.95764 z"
     id="path1224"
     transform="scale(0.06)" />
  <path
     style="fill:#800080;stroke:#d40000;stroke-width:0.947867"
     d="m 305.7754,312.87827 c -7.43684,-3.13602 -11.75911,-6.74331 -15.50833,-12.94296 -3.82305,-6.32175 -4.94692,-10.2236 -4.95373,-17.19833 -0.008,-8.00434 3.08401,-15.33899 8.90826,-21.13282 7.24296,-7.20513 12.52213,-9.4356 22.36608,-9.44972 6.89287,-0.01 8.82943,0.36709 13.40427,2.60938 13.09944,6.4205 20.68238,21.55805 17.52472,34.98398 -4.41502,18.77208 -25.01132,30.18529 -41.74127,23.13047 z"
     id="path1300"
     transform="scale(0.06)" />
  <path
     style="fill:#000080;stroke:#d40000;stroke-width:0.947867"
     d="m 226.00762,230.92429 c -5.12053,-1.3305 -12.84738,-6.10766 -16.24089,-10.04102 -6.04314,-7.00447 -7.08111,-10.0656 -7.08111,-20.88327 0,-11.41561 1.41862,-15.10409 8.53816,-22.19966 6.78818,-6.76533 11.96377,-8.77837 22.56947,-8.77837 8.06669,0 9.22126,0.24013 13.80806,2.87176 23.36643,13.40625 22.8513,44.67358 -0.93144,56.53599 -5.37537,2.68114 -15.3224,3.88205 -20.66225,2.49457 z"
     id="path1339"
     transform="scale(0.06)" />
  <path
     style="fill:#000080;stroke:#d40000;stroke-width:0.947867"
     d="m 225.02019,229.46142 c -8.27261,-2.58922 -18.43486,-11.85931 -20.27934,-18.499 -1.22257,-4.40096 -1.20628,-17.58236 0.0272,-22.02343 1.22299,-4.40321 8.35054,-12.3854 14.03281,-15.71543 3.73394,-2.18824 5.67697,-2.60989 13.46902,-2.92286 7.9295,-0.31849 9.62887,-0.0988 13.15664,1.70095 10.91531,5.56857 18.07849,16.50067 18.07982,27.59253 10e-4,8.31223 -2.12718,14.09673 -7.30522,19.85595 -5.40951,6.01669 -10.59472,9.03572 -17.74963,10.33457 -6.91756,1.25575 -8.50866,1.21745 -13.43132,-0.32328 z"
     id="path1415"
     transform="scale(0.06)" />
  <path
     style="fill:#000080;stroke:#d40000;stroke-width:0.0592417"
     d="m 229.9763,232.78658 c -1.79725,-0.11883 -4.07439,-0.43154 -5.15901,-0.70847 -0.63261,-0.16152 -2.0421,-0.65158 -3.1052,-1.07964 -3.59658,-1.44816 -6.69562,-3.29074 -9.62678,-5.72375 -0.90677,-0.75267 -3.19647,-3.04441 -4.00982,-4.01342 -1.77789,-2.11811 -3.28549,-4.4039 -4.64543,-7.04329 -1.54025,-2.98936 -2.00966,-4.53168 -2.28057,-7.49321 -0.20078,-2.19487 -0.20067,-11.25012 1.7e-4,-13.4496 0.26204,-2.8697 0.70797,-4.38302 2.112,-7.16738 2.5082,-4.97402 5.89669,-9.11577 10.19456,-12.46078 3.60948,-2.80924 8.34699,-5.1132 11.94566,-5.80944 1.8342,-0.35486 3.21951,-0.44784 7.29954,-0.48994 7.8163,-0.0806 9.64688,0.21022 13.51698,2.1478 4.45635,2.23109 7.57374,4.37558 10.40914,7.16057 2.92822,2.87616 5.09753,5.97607 7.0082,10.01459 1.85006,3.91043 2.77421,8.35073 2.77421,13.32938 0,4.99591 -0.92434,9.42282 -2.78937,13.35901 -1.90054,4.01112 -4.07859,7.12477 -6.96337,9.95456 -2.73791,2.68571 -5.65186,4.70625 -9.73474,6.75007 -3.50987,1.75699 -5.60622,2.32628 -9.83716,2.67137 -1.02943,0.084 -6.06639,0.12051 -7.10901,0.0516 z m 7.02015,-0.94225 c 4.38755,-0.33172 6.62704,-0.99799 10.75237,-3.19891 3.5025,-1.86864 5.97848,-3.66784 8.47763,-6.16036 2.47791,-2.47135 4.29603,-4.98271 5.98148,-8.26222 1.6025,-3.11811 2.48956,-5.89616 2.98366,-9.34412 0.26149,-1.82477 0.30002,-2.45137 0.30002,-4.87872 0,-2.42735 -0.0385,-3.05395 -0.30002,-4.87872 -0.36945,-2.57813 -1.01306,-4.93646 -1.98292,-7.26583 -0.57463,-1.38013 -1.87316,-3.77933 -2.88573,-5.33175 -1.21015,-1.85535 -2.40412,-3.31444 -4.0991,-5.00932 -2.87999,-2.87983 -5.63216,-4.80013 -10.22265,-7.13277 -2.77434,-1.40977 -4.21394,-1.8276 -7.08323,-2.05584 -1.32622,-0.10549 -8.74644,-0.10673 -10.15611,-0.002 -3.61217,0.26914 -5.56545,0.80478 -9.02089,2.47375 -1.39465,0.67361 -2.35435,1.21445 -3.59759,2.02743 -2.08131,1.361 -3.51708,2.54035 -5.45376,4.47974 -1.70914,1.71152 -2.90784,3.14236 -4.12388,4.92249 -0.70234,1.02813 -0.7156,1.09151 -0.0372,0.17772 1.85441,-2.49783 5.6099,-6.31569 8.19303,-8.3291 3.85693,-3.00626 7.55938,-4.52596 12.52963,-5.14289 2.37274,-0.29452 4.63333,-0.38685 8.35308,-0.34118 5.91488,0.0726 7.31361,0.33472 10.45616,1.95937 5.93154,3.06653 10.62753,7.20169 13.96602,12.29812 2.95258,4.50731 4.66683,9.49167 5.14463,14.95853 0.0924,1.0574 0.0939,3.78826 0.003,4.8282 -0.22577,2.57149 -0.71544,5.00471 -1.46247,7.26718 -2.21387,6.70498 -6.61339,12.40766 -12.76329,16.54388 -1.71155,1.15113 -3.89192,2.35073 -5.38248,2.96133 -3.18084,1.30302 -7.67403,2.23088 -12.0642,2.49129 -0.74573,0.0442 -0.60282,0.049 0.88862,0.0299 0.97749,-0.0126 2.15047,-0.051 2.60664,-0.0855 z m -10.94614,-0.4524 c -0.0197,-0.0197 -0.0708,-0.0218 -0.11355,-0.005 -0.0473,0.0189 -0.0332,0.0329 0.0358,0.0358 0.0624,0.003 0.0974,-0.0114 0.0778,-0.0311 z m -0.22586,-0.0458 c -0.0136,-0.0123 -0.27137,-0.0928 -0.57286,-0.17883 -4.33498,-1.23727 -10.9283,-5.18368 -14.60919,-8.74429 -1.31494,-1.27198 -3.60351,-4.04949 -4.73281,-5.74395 -0.33783,-0.5069 -0.4877,-0.68246 -0.28028,-0.32833 0.6556,1.11932 2.01899,3.02035 3.08269,4.2983 0.78765,0.9463 3.01733,3.17897 3.93837,3.94365 3.26004,2.70659 6.67526,4.63347 10.92783,6.1655 0.95092,0.34258 2.39153,0.71965 2.24625,0.58795 z m 3.04107,-0.43155 c -0.0407,-0.0164 -0.10737,-0.0164 -0.1481,0 -0.0407,0.0164 -0.007,0.0299 0.074,0.0299 0.0815,0 0.11478,-0.0134 0.074,-0.0299 z m 7.03495,-0.11468 c 3.4925,-0.38376 7.21021,-1.28934 9.68602,-2.35938 1.86702,-0.80692 4.29862,-2.24764 6.28608,-3.72452 2.39363,-1.77869 4.73404,-4.10607 6.50361,-6.46739 3.39444,-4.52956 5.41543,-9.88142 5.90676,-15.64195 0.0894,-1.04816 0.0893,-3.72874 0,-4.73934 -0.22526,-2.54321 -0.66646,-4.74804 -1.41074,-7.04976 -2.49966,-7.72966 -7.92292,-14.19767 -15.59732,-18.60173 -2.75939,-1.58352 -4.23867,-2.16329 -6.26203,-2.45426 -1.27451,-0.18329 -2.37547,-0.24053 -5.37896,-0.27968 -6.27281,-0.0818 -10.02301,0.32595 -13.41825,1.45882 -3.72596,1.24323 -6.84109,3.34819 -10.78415,7.28711 -5.55024,5.54441 -7.33776,8.86018 -7.99346,14.82754 -0.2045,1.86111 -0.24708,2.76711 -0.28041,5.96717 -0.11702,11.23522 0.84083,14.36212 6.41746,20.94967 0.49289,0.58224 1.22601,1.37927 1.62915,1.77117 3.05247,2.96736 8.11512,6.19435 12.40359,7.90618 1.5878,0.63381 3.46732,1.12988 4.59123,1.21182 l 0.44432,0.0324 -0.62375,-0.14343 c -3.95373,-0.90918 -7.06016,-2.25346 -10.54332,-4.56252 -6.67682,-4.42623 -12.04801,-10.68613 -13.23682,-15.42696 -1.01646,-4.05358 -1.14322,-14.82489 -0.23888,-20.29873 0.25578,-1.54821 0.55865,-2.48368 1.20834,-3.73223 2.46933,-4.74551 8.40452,-10.9138 13.33371,-13.85739 3.46406,-2.06864 5.68776,-2.61674 11.90759,-2.93499 4.19733,-0.21476 8.63349,-0.23046 10.01185,-0.0354 1.98944,0.28149 3.53199,0.82234 5.74644,2.01479 2.26265,1.21841 4.24114,2.56393 6.22038,4.23034 0.96278,0.81061 3.18622,3.03359 3.97806,3.97723 4.30448,5.12971 6.85113,10.96658 7.42386,17.01534 0.10864,1.1474 0.12554,3.96255 0.0317,5.27465 -0.55484,7.75442 -3.08821,13.12895 -8.97368,19.0376 -2.86942,2.88071 -5.32158,4.70115 -8.32482,6.18016 -3.0981,1.52573 -5.75744,2.27089 -11.1194,3.11569 -1.3127,0.20682 -1.13619,0.22697 0.45589,0.052 z m -2.36458,-0.70383 c 1.49213,-0.15767 4.65833,-0.68312 6.27454,-1.04129 5.42379,-1.20199 9.73244,-3.58899 14.00244,-7.75737 5.73479,-5.59831 8.33693,-10.71163 9.07616,-17.83503 0.14893,-1.43512 0.18159,-4.91745 0.0583,-6.2171 -0.55801,-5.88269 -2.95984,-11.43145 -7.11602,-16.43957 -0.81625,-0.98357 -3.085,-3.25171 -4.08369,-4.0826 -2.13979,-1.78026 -4.33482,-3.22227 -6.73253,-4.42289 -2.07458,-1.03882 -3.42534,-1.42862 -5.52429,-1.5942 -2.50139,-0.19733 -10.38644,0.0818 -13.4837,0.47726 -2.76604,0.3532 -4.5676,0.98384 -7.04976,2.4678 -4.04967,2.42108 -8.8377,7.09741 -11.78378,11.50889 -1.41217,2.11459 -1.94565,3.37354 -2.28444,5.391 -0.90066,5.36335 -0.77269,16.21855 0.23711,20.11256 0.79566,3.06827 3.58459,7.01812 7.46262,10.569 2.99953,2.74649 5.99159,4.83842 9.15285,6.39931 1.8451,0.91103 3.59296,1.53988 5.77606,2.07812 2.1319,0.52562 3.72854,0.62805 6.01812,0.38611 z m -28.08565,-14.13041 c -0.0349,-0.0652 -0.0767,-0.11848 -0.093,-0.11848 -0.0163,0 -10e-4,0.0533 0.0338,0.11848 0.0349,0.0652 0.0767,0.11848 0.093,0.11848 0.0163,0 0.001,-0.0533 -0.0338,-0.11848 z m -1.27923,-2.35486 c -1.20109,-2.78006 -1.67336,-5.2499 -1.86628,-9.76007 -0.0781,-1.8261 -0.0387,-7.56827 0.061,-8.88625 0.29225,-3.86398 0.77271,-6.14428 1.80678,-8.57524 0.17289,-0.40643 0.0385,-0.22935 -0.22485,0.29621 -1.23557,2.46607 -1.687,4.0762 -1.9392,6.91647 -0.0986,1.11045 -0.14194,9.8266 -0.0574,11.55213 0.14313,2.92278 0.40926,4.40295 1.11308,6.19076 0.29171,0.74098 1.11197,2.48815 1.16814,2.48815 0.0191,0 -0.008,-0.1 -0.0612,-0.22216 z"
     id="path1454"
     transform="scale(0.06)" />
</svg>
