<?xml version="1.0" encoding="UTF-8" standalone="no"?>
<!-- Uploaded to: SVG Repo, www.svgrepo.com, Generator: SVG Repo Mixer Tools -->

<svg
   fill="#000000"
   width="800px"
   height="800px"
   viewBox="0 0 36 36"
   version="1.1"
   preserveAspectRatio="xMidYMid meet"
   id="svg14"
   sodipodi:docname="sim.svg"
   inkscape:version="1.1.2 (0a00cf5339, 2022-02-04)"
   xmlns:inkscape="http://www.inkscape.org/namespaces/inkscape"
   xmlns:sodipodi="http://sodipodi.sourceforge.net/DTD/sodipodi-0.dtd"
   xmlns="http://www.w3.org/2000/svg"
   xmlns:svg="http://www.w3.org/2000/svg">
  <defs
     id="defs18" />
  <sodipodi:namedview
     id="namedview16"
     pagecolor="#ffffff"
     bordercolor="#666666"
     borderopacity="1.0"
     inkscape:pageshadow="2"
     inkscape:pageopacity="0.0"
     inkscape:pagecheckerboard="0"
     showgrid="false"
     inkscape:zoom="1.055"
     inkscape:cx="400"
     inkscape:cy="400"
     inkscape:window-width="2560"
     inkscape:window-height="1403"
     inkscape:window-x="1920"
     inkscape:window-y="0"
     inkscape:window-maximized="0"
     inkscape:current-layer="svg14" />
  <title
     id="title2">scatter-plot-line</title>
  <path
     class="clr-i-outline clr-i-outline-path-1"
     d="M 32 5 L 4 5 C 2.895 5 2 5.895 2 7 L 2 29 C 2 30.105 2.895 31 4 31 L 32 31 C 33.105 31 34 30.105 34 29 L 34 7 C 34 5.895 33.105 5 32 5 Z M 4 29 L 4 7 L 32 7 L 32 29 Z"
     id="path4" />
  <path
     class="clr-i-outline clr-i-outline-path-2"
     d="M 9.101 15.8 C 9.413 16.111 9.919 16.111 10.231 15.8 L 11.391 14.64 L 12.551 15.8 C 12.964 16.256 13.717 16.094 13.905 15.507 C 14.002 15.208 13.914 14.881 13.681 14.67 L 12.531 13.54 L 13.691 12.38 C 14.147 11.966 13.985 11.214 13.399 11.025 C 13.1 10.929 12.772 11.017 12.561 11.25 L 11.401 12.41 L 10.231 11.22 C 9.817 10.763 9.065 10.926 8.877 11.512 C 8.78 11.811 8.868 12.139 9.101 12.35 L 10.261 13.54 L 9.101 14.67 C 8.789 14.982 8.789 15.487 9.101 15.8 Z"
     id="path6" />
  <path
     class="clr-i-outline clr-i-outline-path-3"
     d="M 15.176 25.536 C 15.488 25.847 15.994 25.847 16.306 25.536 L 17.466 24.376 L 18.626 25.536 C 19.039 25.992 19.792 25.83 19.98 25.243 C 20.077 24.944 19.989 24.617 19.756 24.406 L 18.606 23.276 L 19.766 22.116 C 20.222 21.702 20.06 20.95 19.474 20.761 C 19.175 20.665 18.847 20.753 18.636 20.986 L 17.476 22.146 L 16.306 20.956 C 15.892 20.499 15.14 20.662 14.952 21.248 C 14.855 21.547 14.943 21.875 15.176 22.086 L 16.336 23.276 L 15.176 24.406 C 14.864 24.718 14.864 25.223 15.176 25.536 Z"
     id="path8" />
  <path
     class="clr-i-outline clr-i-outline-path-4"
     d="M 22.912 20.343 C 23.224 20.654 23.73 20.654 24.042 20.343 L 25.202 19.183 L 26.362 20.343 C 26.775 20.799 27.528 20.637 27.716 20.05 C 27.813 19.751 27.725 19.424 27.492 19.213 L 26.342 18.083 L 27.502 16.923 C 27.958 16.509 27.796 15.757 27.21 15.568 C 26.911 15.472 26.583 15.56 26.372 15.793 L 25.212 16.953 L 24.042 15.763 C 23.628 15.306 22.876 15.469 22.688 16.055 C 22.591 16.354 22.679 16.682 22.912 16.893 L 24.072 18.083 L 22.912 19.213 C 22.6 19.525 22.6 20.03 22.912 20.343 Z"
     id="path10" />
  <rect
     x="0"
     y="0"
     width="36"
     height="36"
     fill-opacity="0"
     id="rect12" />
  <path
     style="fill:#d40000;stroke:#d40000;stroke-width:0.947867"
     d="m 420.37915,571.16916 c -2.23104,-1.04447 -9.443,-7.47271 -17.52329,-15.619 -7.5525,-7.6142 -14.16959,-13.844 -14.70464,-13.844 -0.53505,0 -6.93868,6.00185 -14.23027,13.33744 -13.90246,13.98635 -18.09318,16.99431 -23.67667,16.99431 -3.81945,0 -9.47407,-2.1107 -12.15879,-4.53852 -5.18314,-4.68715 -6.79466,-13.6281 -3.588,-19.90682 0.98783,-1.93421 7.83452,-9.42219 15.21485,-16.63995 7.38033,-7.21777 13.29012,-13.49123 13.13285,-13.94104 -0.15727,-0.4498 -6.76263,-7.62398 -14.67858,-15.94261 -15.30024,-16.07857 -17.29246,-19.30689 -16.03868,-25.99009 1.26943,-6.76668 7.74825,-13.2455 14.51493,-14.51494 7.03314,-1.31942 10.09926,0.63928 26.57933,16.97947 l 15.40229,15.27156 14.92947,-14.82434 c 8.2112,-8.15339 16.13022,-15.28084 17.5978,-15.83877 5.47378,-2.08096 13.49975,-0.5137 18.04695,3.5241 2.55909,2.27241 5.3055,8.61852 5.33025,12.31657 0.0407,6.07917 -2.66368,9.92727 -17.28871,24.6005 l -14.39392,14.44137 14.80918,14.94251 c 11.78465,11.89076 15.02103,15.71687 15.84643,18.73399 1.41267,5.1637 1.29547,6.95617 -0.74367,11.37441 -2.11779,4.5886 -5.11852,7.4764 -9.80236,9.43343 -4.58972,1.91771 -7.93216,1.82481 -12.57675,-0.34958 z"
     id="path890"
     transform="scale(0.045)" />
  <path
     style="fill:#000080;stroke:#d40000;stroke-width:0.947867"
     d="m 592.41706,455.84905 c -1.8357,-0.78723 -9.76747,-7.85056 -17.75768,-15.8134 l -14.44016,-14.39069 -13.99586,13.83764 c -7.69773,7.6107 -15.36095,14.53016 -17.02937,15.37658 -9.74626,4.94439 -22.4747,-1.7379 -24.48482,-12.85427 -1.21643,-6.72714 0.69237,-9.71251 16.29331,-25.48284 l 14.59903,-14.75755 -14.73433,-15.31273 c -8.10388,-8.422 -15.15451,-16.41788 -15.66805,-17.76861 -1.50998,-3.97155 -1.07999,-10.65211 0.94055,-14.61268 3.48262,-6.8265 11.77231,-10.50273 19.21577,-8.52162 3.34825,0.89115 6.62697,3.64959 19.41833,16.33692 l 15.38989,15.26473 14.95469,-14.77214 C 590.37184,347.3111 593.07742,345.47836 600,345.52373 c 3.96248,0.026 10.02056,3.35959 12.85246,7.07241 2.04658,2.6832 2.77479,4.82675 3.08184,9.07167 0.55512,7.67452 -1.46383,10.73737 -17.75351,26.93291 l -13.32227,13.24526 14.6132,14.71682 c 8.03725,8.09425 15.06967,15.91757 15.6276,17.38516 2.20412,5.79774 0.10822,14.91258 -4.33664,18.85949 -4.85907,4.31473 -12.44439,5.57233 -18.34562,3.0416 z"
     id="path966"
     transform="scale(0.045)" />
  <path
     style="fill:#800080;stroke:#d40000;stroke-width:0.947867"
     d="m 290.52133,356.41629 c -0.52133,-0.17946 -2.22749,-0.60973 -3.79147,-0.95614 -1.9741,-0.43725 -7.55323,-5.3057 -18.24589,-15.92168 l -15.40229,-15.29182 -14.92947,14.79695 c -11.86677,11.76144 -15.73712,15.03583 -18.86646,15.9614 -12.40421,3.6688 -24.11177,-7.9651 -21.01399,-20.88178 0.90339,-3.7668 2.74774,-5.94207 15.77809,-18.60895 l 14.75512,-14.34354 -14.63945,-15.31886 c -8.0517,-8.42537 -15.21673,-16.68486 -15.9223,-18.35443 -3.29476,-7.79638 0.84647,-18.01648 8.75575,-21.60823 9.71614,-4.41228 14.3599,-2.0902 32.26673,16.13474 l 14.14721,14.39854 14.28881,-14.18344 c 7.85884,-7.80088 15.65388,-14.86561 17.3223,-15.69939 12.48243,-6.23798 27.51825,6.08843 23.9199,19.6096 -0.8783,3.30033 -3.68135,6.63317 -16.16008,19.21443 l -15.09747,15.22152 13.84241,13.68844 c 7.61331,7.52864 14.65995,15.27097 15.65918,17.20518 4.01349,7.76891 1.04301,18.10764 -6.38411,22.21978 -3.67891,2.03688 -8.53323,3.31988 -10.28252,2.71768 z"
     id="path1042"
     transform="scale(0.045)" />
</svg>
